/* XPM */
static char *_498_832c7485113f8ec7a092eff11e3dc4fa6cb54997a7b425e9f61e35b1a6795dbb[] = {
/* columns rows colors chars-per-pixel */
"100 100 51 1 ",
"  c #1E2D44",
". c #1C2738",
"X c #1D2C41",
"o c #161F2C",
"O c #1A283B",
"+ c #121A25",
"@ c #1C2534",
"# c #17202F",
"$ c #1B2B40",
"% c #151D29",
"& c #172332",
"* c #1B293D",
"= c #111822",
"- c #0E131F",
"; c #1A2639",
": c #141B27",
"> c #192536",
", c #182334",
"< c #0F1521",
"1 c #1A2330",
"2 c #1D293A",
"3 c #0C111D",
"4 c #1D2B3D",
"5 c #090C19",
"6 c #213247",
"7 c #324B5E",
"8 c #283D51",
"9 c #141D2C",
"0 c #0E1528",
"q c #0F2035",
"w c #51697B",
"e c #89A4B1",
"r c #113D58",
"t c #0F1A2F",
"y c #99B4C0",
"u c #5D7989",
"i c #0D3149",
"p c #495869",
"a c #355D73",
"s c #80909E",
"d c #ACC3CD",
"f c #6E8493",
"g c #BBD4DD",
"h c #075178",
"j c #D6E1E6",
"k c #278AAA",
"l c #64C5DD",
"z c #51AFC9",
"x c #BAF9FE",
"c c #5599B0",
"v c #2B748F",
/* pixels */
",ttt99999:::::+++++::%%%%%oooo##1#11111@@@@@...222244444444444XXX        6 6666666666666666666666666",
"t00000000<<--------<<<<======++:+::%%%%%oo###11111@@@@@@@@.........22222******$$$$$XXXX    XXX$$$$$$",
"t0t000000<<<---<<<<======+++::::%%%%oooo##111111@@@@@@@.....2222222222444444$$XXXX            XXX$$$",
"t0000000<<<---<<<<=======++::::%%%%oooo###11111@@@@@@@......222222222444444$$XXXX           XXXX$$$$",
"t0t0000<<<---<<<<=======++::::%%%%oooo###11111@@@@@@@......222222222444444$$XXXX           XXXX$$$$*",
"t00000<<<---<<<<=======++::::%%%%oooo###11111@@@@@@@......222222222444444$$XXXX           XXXX$$$$**",
"t0000<<<---<<<<=======++::::%%%%oooo###11111@@@@@@@......222222222444444$$XXXX           XXXX$$$$***",
"t000<<<---<<<<=======++::::%%%%oooo###11111@@@@@@@......222222222444444$$XXXX           XXXX$$$$****",
":00<<<---<<<<=======++::::%%%%oooo###11111@@@@@@@......222222222444444$$XXXX           XXXX$$$$*****",
"+<<<<---<<<<=======++::::%%%%oooo###11111@@@@@@@......222222222444444$$XXXX           XXXX$$$$*****O",
"+<<<---<<<<=======++::::%%%%oooo###11111@@@@@@@......222222222444444$$XXXX           XXXX$$$$*****OO",
"+<<---<<<<=======++::::%%%%oooo###11111@@@@@@@......222222222444444$$XXXX           XXXX$$$$*****OOO",
"+----<<<<=======++::::%%%%oooo###11111@@@@@@@......222222222444444$$XXXX           XXXX$$$$*****OOO;",
"=---<<<<=======++::::%%%%oooo###11111@@@@@@@......222222222444444$$XXXX           XXXX$$$$*****OOO;;",
"=--<<<<=======++::::%%%%oooo###11111@@@@@@@......222222222444444$$XXXX           XXXX$$$$*****OOO;;.",
"=-<<<<=======++::::%%%%oooo###11111@@@@@@@......222222222444444$$XXXX           XXXX$$$$*****OOO;;.;",
"=-<<<=======++::::%%%%oooo###11111@@@@@@@......222222222444444$$XXXX           XXXX$$$$*****OOO;;.;;",
"=-<<=======++::::%%%%oooo###11111@@@@@@@......222222222444444$$XXXX           XXXX$$$$*****OOO;;.;;;",
"=<<=======++::::%%%%oooo###11111@@@@@@@......222222222444444$$XXXX           XXXX$$$$*****OOO;;.;;;;",
"+<=======++::::%%%%oooo###11111@@@@@@@......222222222444444$$XXXX           XXXX$$$$*****OOO;;.;;;;>",
"+<======++::::%%%%oooo###11111@@@@@@@......222222222444444$$XXXX           XXXX$$$$*****OOO;;.;;;;>>",
"+<=====++::::%%%%oooo###11111@@@@@@@......222222222444444$$XXXX           XXXX$$$$*****OOO;;.;;;;>>>",
"+=====++::::%%%%oooo###11111@@@@@@@......222222222444444$$XXXX           XXXX$$$$*****OOO;;.;;;;>>>,",
":====++::::%%%%oooo###11111@@@@@@@......222222444444XX4$$XXXX           XXXX$$$$*****OOO;;.;;;;>>>,,",
":===++::::%%%%oooo###11111@@@@@@@......2222242;,,XX,>O$XXXXX           XXXX$$$$*****OOO;;.;;;;>>>,,,",
":=+++::::%%%%oooo###11111@@@@@@@......222222,.87app778$O$ X           XXXX$$$$*****OOO;;.;;;;>>>,,,,",
"%=++::::%%%%oooo###11111@@@@@@@......22224,47wwa7ww7aaa7 *           XXXX$$$$*****OOO;;.;;;;>>>,,,,,",
"%=+::::%%%%oooo###11111@@@@@@@......22222,8uw76Xtfu01,67a8*         XXXX$$$$*****OOO;;.;;;;>>>,,,,,,",
"%+::::%%%%oooo###11111@@@@@@@......22222@au7  87isf678&:6a7X       XXXX$$$$*****OOO;;.;;;;>>>,,,,,,&",
"%+:::%%%%oooo###11111@@@@@@@......22222.8a868rr6=eso87a8:#86      XXXX$$$$*****OOO;;.;;;;>>>,,,,,,&&",
"o+::%%%%oooo###11111@@@@@@@......22224,7wr86r#:=-de:o&6w84X87$   XXXX$$$$*****OOO;;.;;;;>>>,,,,,,&&&",
"o::%%%%oooo###11111@@@@@@@......22222>6u86hi-:+68ge86..:av+o76X XXXX$$$$*****OOO;;.;;;;>>>,,,,,,&&&#",
"o:%%%%oooo###11111@@@@@@@......222224,wa 6>vr%awwgepap#uz775$7X XXX$$$$*****OOO;;.;;;;>>>,,,,,,&&&##",
"o:%%%oooo###11111@@@@@@@......222224>8u66i=$ka76pjyp 8elr u23r6$XX$$$$*****OOO;;.;;;;>>>,,,,,,&&&###",
"#:%%oooo###11111@@@@@@@......2222224,aaXr&::akv8ujyw6ylh Xpw5Xr*X$$$$*****OOO;;.;;;;>>>,,,,,,&&&####",
"#%%oooo###11111@@@@@@@......2222222*.w7 io=7pakvsdcfdlh8768u::rX$$$$*****OOO;;.;;;;>>>,,,,,,&&&#####",
"1%oooo###11111@@@@@@@......2222222*O6w86i%:a8 kzzggzlvqO86 u83r6$$$*****OOO;;.;;;;>>>,,,,,,&&&######",
"1%ooo###11111@@@@@@@......222222224;6a,qt%6wwuszjesgcsupp76p45$$*$*****OOO;;.;;;;>>>,,,,,,&&&#######",
"1%oo###11111@@@@@@@......222222222447useydggggyder$wyyjgggdyefp7 *****OOO;;.;;;;>>>,,,,,,&&&#######o",
"1oo###11111@@@@@@@......2222222224448wwufeyddgyde$0pyedyeesfw7784****OOO;;.;;;;>>>,,,,,,&&&#######oo",
"1o###11111@@@@@@@......222222222444O6a,qq:@ppwfcgfwecfp7886w@5i$O***OOO;;.;;;;>>>,,,,,,&&&#######ooo",
"1###11111@@@@@@@......22222222244444*a84r2&77Xklcyecgz>;888fo<r$***OOO;;.;;;;>>>,,,,,,&&&#######o#o9",
"@#111111@@@@@@@......22222222244444X;a7#r6@67vlfyyeyexc688aw5qiO**OOO;;.;;;;>>>,,,,,,&&&#######ooo9o",
"@#11111@@@@@@@......222222222444444XO8a,4r41azwtegde3wzv88fX5iiO*OOO;;.;;;;>>>,,,,,,&&&#######ooo9oo",
"@#1111@@@@@@@......222222222444444$$X*a8:867c786egde*67kaww5tiO*OOO;;.;;;;>>>,,,,,,&&&#######ooo9oo%",
"@1111@@@@@@@......222222222444444$$X *8a,:8v628 sgds678rk755i 2OOO;;.;;;;>>>,,,,,,&&&#######ooo9oo%%",
"@111@@@@@@@......222222222444444$$XXX *77&r6786,sjds 87u7r=Oi2OOO;;.;;;;>>>,,,,,,&&&#######ooo9oo%%%",
".11@@@@@@@......222222222444444$$XXXX   86%<6aa8fjyf7wu753qq4OOO;;.;;;;>>>,,,,,,&&&#######ooo9oo%%%:",
".1@@@@@@@......222222222444444$$XXXX    *77#5=88ujyu77<5-ii>*OO;;.;;;;>>>,,,,,,&&&#######ooo9oo%%%::",
".1@@@@@@......222222222444444$$XXXX       r76:35pjy7553qii**OO;;.;;;;>>>,,,,,,&&&#######ooo9oo%%%:::",
".@@@@@@......222222222444444$$XXXX         6r7rq7jy7tiii$2OOO;;.;;;;>>>,,,,,,&&&#######ooo9oo%%%::::",
"2@@@@@......222222222444444$$XXXX          X* 8ipjy7ii$.OOOO;;.;;;;>>>,,,,,,&&&#######ooo9oo%%%:::::",
"2@@@@......222222222444444$$XXXX             XXq7jy7,*O*OOO;;.;;;;>>>,,,,,,&&&#######ooo9oo%%%::::::",
"2@@@......222222222444444$$XXXX           XXXXXO8jy8>**OOO;;.;;;;>>>,,,,,,&&&#######ooo9oo%%%::::::+",
"2@@......222222222444444$$XXXX           XXXX$XO8je6;*OOO;;.;;;;>>>,,,,,,&&&#######ooo9oo%%%::::::++",
"2@......222222222444444$$XXXX           XXXX$$$O6je ;*OO;;.;;;;>>>,,,,,,&&&#######ooo9oo%%%::::::+++",
"2@.....222222222444444$$XXXX           XXXX$$$$**ge*.OO;;.;;;;>>>,,,,,,&&&#######ooo9oo%%%::::::++++",
"2@....222222222444444$$  XX           XXXX$$$$**>ge>OO;;.;;O;;>>,,,,,,&&&#######ooo9oo%%%::::::++++=",
"4....222222222444444$$ ;q    q$      XXXX$$$$O*4qdeq*O;.;O@###,>,,,,,&&&#######ooo9oo%%%::::::++++==",
"4...222222222444444$$ qwsq6 $s7* 6   XXX   * 8XXtdeq442;;#$rhr>&>>,>>&&@@>&###&#1#oo%%%::::::++++===",
"4.2222222222444444$$X6tsxwq6$gp;6qqqq X*,qq;6dqqtyett0q2#7zzzlz83vz><&9333<##:5=3<o%%%::::::++++====",
"4.222222222444444$$XX qsyg7O d7O;wyyu;;7fwe;fjsu0ys;yy7q9yxw2ue,8dxu796ueew9+8e7up-o%::::::++++=====",
"4.22222222444444$$XXX tsfwg;Xd7tfdppds0pjep>wgwp0ef>psj60exe7#00uxgxe5uxygxw5wxgxu5#::::::++++======",
"4.2222222444444$$XXXX6qss3ystd7Od7tq6dX7g;t;6yqqtsf093yp06cllza&:ul6o#@8>7lf57lc6o%::::::++++=======",
"4.222222444444$$XXXX 6qffq6dpe76y6 6Oy87eqX>8y6X0fu049ept,:67kk8=ak49ohkkvka-8k759::::::++++========",
"4.22222444444$$XXXX   qfu>*7yy7qewttpeq7e,4>6e,,tuu02ts7thr,9rhi:rh*o,hh=Ohr=ihi:%:::::++++========<",
"4.2222444444$$XXXX    quuq6qwd8,7euue7t7s,4O;ssw0wwt2ts7trhhhhr&oihhrorhrhhr=$hi+%::::++++========<<",
"42222444444$$XXXX      88$  $76X;6pp6,*67;O*>6p8tppt.&8 #,irri&##,irio,rr$ii:,r;+::::++++========<<<",
"X222444444$$XXXX        *    ;$$X*qqO$*O,OO;O>9,9ppt;>9&>,###o####%%%#o::%::%%=+::::++++========<<<<",
"X22444444$$XXXX           XXX $$$$XX*****O;;..OO#779>,>>,,,&&&#######ooooo99%%%::::++++========<<<<<",
"X2444444$$XXXX           XXXX$$$$*****OOO;;.;;;;#88#>,,,,&&&#######ooo9oo%%%::::::++++========<<<<<<",
"X*44444$$XXXX           XXXX$$$$*****OOO;;.;;;;>,44&,,,,&&&#######ooo9oo%%%::::::++++========<<<<<<<",
" *4444$$XXXX           XXXX$$$$*****OOO;;.;;;;>>>,,,,,,&&&#######ooo9oo%%%::::::++++========<<<<<<<<",
" *444$$XXXX           XXXX$$$$*****OOO;;.;;;;>>>,,,,,,&&&#######ooo9oo%%%::::::++++========<<<<<<<<-",
" 444$$XXXX           XXXX$$$$*****OOO;;.;;;;>>>,,,,,,&&&#######ooo9oo%%%::::::++++========<<<<<<<<--",
" *4$$XXXX           XXXX$$$$*****OOO;;.;;;;>>>,,,,,,&&&#######ooo9oo%%%::::::++++========<<<<<<<<---",
" *$$XXXX           XXXX$$$$*****OOO;;.;;;;>>>,,,,,,&&&#######ooo9oo%%%::::::++++========<<<<<<<<----",
" *$XXXX           XXXX$$$$*****OOO;;.;;;;>>>,,,,,,&&&#######ooo9oo%%%::::::++++========<<<<<<<<-----",
" $XXXX           XXXX$$$$*****OOO;;.;;;;>>>,,,,,,&&&#######ooo9oo%%%::::::++++========<<<<<<<<------",
" $XXX           XXXX$$$$*****OOO;;.;;;;>>>,,,,,,&&&#######ooo9oo%%%::::::++++========<<<<<<<<-------",
"6$XX           XXXX$$$$*****OOO;;.;;;;>>>,,,,,,&&&#######ooo9oo%%%::::::++++========<<<<<<<<-------3",
"6$X           XXXX$$$$*****OOO;;.;;;;>>>,,,,,,&&&#######ooo9oo%%%::::::++++========<<<<<<<<-------33",
"6$           XXXX$$$$*****OOO;;.;;;;>>>,,,,,,&&&#######ooo9oo%%%::::::++++========<<<<<<<<-------333",
"6X          XXXX$$$$*****OOO;;.;;;;>>>,,,,,,&&&#######ooo9oo%%%::::::++++========<<<<<<<<-------3333",
"6X         XXXX$$$$*****OOO;;.;;;;>>>,,,,,,&&&#######ooo9oo%%%::::::++++========<<<<<<<<-------33333",
"6X        XXXX$$$$*****OOO;;.;;;;>>>,,,,,,&&&#######ooo9oo%%%::::::++++========<<<<<<<<-------333333",
"6X       XXXX$$$$*****OOO;;.;;;;>>>,,,,,,&&&#######ooo9oo%%%::::::++++========<<<<<<<<-------3333333",
"6       XXXX$$$$*****OOO;;.;;;;>>>,,,,,,&&&#######ooo9oo%%%::::::++++========<<<<<<<<-------33333333",
"6      XXXX$$$$*****OOO;;.;;;;>>>,,,,,,&&&#######ooo9oo%%%::::::++++========<<<<<<<<-------333333333",
"6     XXXX$$$$*****OOO;;.;;;;>>>,,,,,,&&&#######ooo9oo%%%::::::++++========<<<<<<<<-------3333333335",
"6    XXXX$$$$*****OOO;;.;;;;>>>,,,,,,&&&#######ooo9oo%%%::::::++++========<<<<<<<<-------33333333355",
"6   XXXX$$$$*****OOO;;.;;;;>>>,,,,,,&&&#######ooo9oo%%%::::::++++========<<<<<<<<-------333333333555",
"6X XXXX$$$$*****OOO;;.;;;;>>>,,,,,,&&&#######ooo9oo%%%::::::++++========<<<<<<<<-------3333333335555",
"6X XXX$$$$*****OOO;;.;;;;>>>,,,,,,&&&#######ooo9oo%%%::::::++++========<<<<<<<<-------33333333355555",
"6XXXX$$$$*****OOO;;.;;;;>>>,,,,,,&&&#######ooo9oo%%%::::::++++========<<<<<<<<-------333333333555555",
"6$XX$$$$*****OOO;;.;;;;>>>,,,,,,&&&#######ooo9oo%%%::::::++++========<<<<<<<<-------3333333335555555",
"6$X$$$$*****OOO;;.;;;;>>>,,,,,,&&&#######ooo9oo%%%::::::++++========<<<<<<<<-------33333333355555555",
"6$$$$$*****OOO;;.;;;;>>>,,,,,,&&&#######o#o9oo%%%::::::++++========<<<<<<<<-------333333333555555555",
" $$$$*****OOO;;.;;;;>>>,,,,,,&&&#######ooo9oo%%%::::::++++========<<<<<<<<-------3333333335555555555",
" $$$*****OOO;;.;;;;>>>,,,,,,&&&#######ooo9oo%%%::::::++++========<<<<<<<<-------33333333355555555555"
};
